HIERARCHY
ROOT Hips
{
	OFFSET -0.001795 -0.223333 0.028219
	CHANNELS 6 Xposition Yposition Zposition Zrotation Yrotation Xrotation
	JOINT LeftUpLeg
	{
		OFFSET 0.069520 -0.091406 -0.006815
		CHANNELS 3 Zrotation Yrotation Xrotation
		JOINT LeftLeg
		{
			OFFSET 0.034277 -0.375199 -0.004496
			CHANNELS 3 Zrotation Yrotation Xrotation
			JOINT LeftFoot
			{
				OFFSET -0.013596 -0.397961 -0.043693
				CHANNELS 3 Zrotation Yrotation Xrotation
				JOINT LeftToe
				{
					OFFSET 0.026358 -0.055791 0.119288
					CHANNELS 3 Zrotation Yrotation Xrotation
					End Site
					{
						OFFSET 0.000000 0.000000 0.000000
					}
				}
			}
		}
	}
	JOINT RightUpLeg
	{
		OFFSET -0.067670 -0.090522 -0.004320
		CHANNELS 3 Zrotation Yrotation Xrotation
		JOINT RightLeg
		{
			OFFSET -0.038290 -0.382569 -0.008850
			CHANNELS 3 Zrotation Yrotation Xrotation
			JOINT RightFoot
			{
				OFFSET 0.015774 -0.398415 -0.042312
				CHANNELS 3 Zrotation Yrotation Xrotation
				JOINT RightToe
				{
					OFFSET -0.025372 -0.048144 0.123348
					CHANNELS 3 Zrotation Yrotation Xrotation
					End Site
					{
						OFFSET 0.000000 0.000000 0.000000
					}
				}
			}
		}
	}
	JOINT Spine
	{
		OFFSET -0.002533 0.108963 -0.026696
		CHANNELS 3 Zrotation Yrotation Xrotation
		JOINT Spine1
		{
			OFFSET 0.005487 0.135180 0.001092
			CHANNELS 3 Zrotation Yrotation Xrotation
			JOINT Spine2
			{
				OFFSET 0.001457 0.052922 0.025425
				CHANNELS 3 Zrotation Yrotation Xrotation
				JOINT Neck
				{
					OFFSET -0.002778 0.213870 -0.042857
					CHANNELS 3 Zrotation Yrotation Xrotation
					JOINT Head
					{
						OFFSET 0.005152 0.064970 0.051349
						CHANNELS 3 Zrotation Yrotation Xrotation
						End Site
						{
							OFFSET 0.000000 0.000000 0.000000
						}
					}
				}
				JOINT LeftShoulder
				{
					OFFSET 0.078845 0.121749 -0.034090
					CHANNELS 3 Zrotation Yrotation Xrotation
					JOINT LeftArm
					{
						OFFSET 0.090977 0.030469 -0.008868
						CHANNELS 3 Zrotation Yrotation Xrotation
						JOINT LeftForeArm
						{
							OFFSET 0.259612 -0.012772 -0.027456
							CHANNELS 3 Zrotation Yrotation Xrotation
							JOINT LeftHand
							{
								OFFSET 0.249234 0.008986 -0.001171
								CHANNELS 3 Zrotation Yrotation Xrotation
								End Site
								{
									OFFSET 0.000000 0.000000 0.000000
								}
							}
						}
					}
				}
				JOINT RightShoulder
				{
					OFFSET -0.081759 0.118833 -0.038615
					CHANNELS 3 Zrotation Yrotation Xrotation
					JOINT RightArm
					{
						OFFSET -0.096012 0.032551 -0.009143
						CHANNELS 3 Zrotation Yrotation Xrotation
						JOINT RightForeArm
						{
							OFFSET -0.253742 -0.013329 -0.021401
							CHANNELS 3 Zrotation Yrotation Xrotation
							JOINT RightHand
							{
								OFFSET -0.255298 0.007772 -0.005559
								CHANNELS 3 Zrotation Yrotation Xrotation
								End Site
								{
									OFFSET 0.000000 0.000000 0.000000
								}
							}
						}
					}
				}
			}
		}
	}
}
MOTION
Frames: 14
Frame Time: 0.050000
0.000000 0.919360 0.000000 -3.358530 9.335290 -5.004594 9.019360 -0.242422 1.498095 -6.826124 0.697217 15.541723 5.568369 10.248575 -2.693060 0.000000 0.000000 0.000000 -4.005775 0.497345 -8.758088 5.727200 -1.470518 19.552132 -8.661810 -20.315243 10.096940 0.000000 0.000000 0.000000 6.390523 -0.858647 8.515930 -4.677370 2.176152 -16.532201 -3.391036 -0.320661 25.620978 13.225887 -6.796365 -20.094901 0.000000 0.000000 0.000000 -4.828433 -25.601283 8.975438 -23.214792 -38.907456 2.152746 128.706630 -64.482865 -101.941301 0.000000 0.000000 0.000000 9.434759 2.764447 1.517051 17.898695 15.903717 -1.310922 -70.097995 20.602805 -10.225828 0.000000 0.000000 0.000000
-0.001217 0.919942 0.000354 -3.903602 10.044015 -3.971006 9.694968 -0.313185 0.442998 -6.709095 0.645108 14.985481 5.384746 9.765635 -2.852587 0.000000 0.000000 0.000000 -3.025110 0.625719 -9.370321 5.265662 -1.324508 18.603457 -9.109105 -21.069315 10.485992 0.000000 0.000000 0.000000 6.686507 -0.727748 6.891348 -4.062276 1.990385 -16.386181 -3.273485 0.065952 25.905786 13.012326 -6.859314 -18.623212 0.000000 0.000000 0.000000 -4.796465 -24.658634 8.555174 -23.808723 -39.236062 2.259657 130.252629 -64.595085 -104.297802 0.000000 0.000000 0.000000 9.528168 2.022682 1.282716 18.542339 14.762125 -1.459339 -72.771690 21.984292 -11.404032 0.000000 0.000000 0.000000
-0.002040 0.922736 0.000306 -3.543169 8.825424 -4.140156 8.966528 -0.242073 1.485287 -6.296557 0.620977 13.930206 5.570368 10.643891 -1.659455 0.000000 0.000000 0.000000 -3.100318 0.610351 -9.021289 4.832058 -1.092603 18.148556 -8.491990 -19.964379 10.738834 0.000000 0.000000 0.000000 6.469978 -0.803410 7.838907 -3.680025 1.822932 -18.088598 -3.638270 2.792387 27.645130 14.872296 -7.664369 -19.761353 0.000000 0.000000 0.000000 -4.559049 -26.036070 8.840032 -22.042060 -37.701830 1.498992 129.099156 -62.603714 -101.898050 0.000000 0.000000 0.000000 11.354067 2.399077 1.891784 17.549518 13.636739 -1.766707 -74.269839 19.174851 -9.249226 0.000000 0.000000 0.000000
-0.002805 0.927553 -0.000012 -3.889731 9.043341 -3.822742 8.731079 -0.240642 1.724190 -5.101059 0.391728 12.554433 5.242575 10.412000 -0.357406 0.000000 0.000000 0.000000 -2.661735 0.628928 -8.693121 4.834124 -1.046663 16.736166 -8.487197 -19.808978 12.333201 0.000000 0.000000 0.000000 6.934461 -0.746741 6.952648 -3.977083 1.918010 -17.490831 -3.661297 2.865336 27.568423 14.408958 -7.387364 -19.300937 0.000000 0.000000 0.000000 -2.643985 -25.631221 8.459394 -22.581574 -37.856739 1.576963 127.763583 -64.199621 -102.249759 0.000000 0.000000 0.000000 10.091294 1.672617 1.456946 18.317274 13.318723 -1.786572 -71.822998 19.391595 -8.726630 0.000000 0.000000 0.000000
-0.003381 0.933018 -0.000204 -3.854541 9.222067 -3.488639 8.168945 -0.221650 1.798960 -4.091951 0.214990 11.540721 4.822046 10.192008 1.402769 0.000000 0.000000 0.000000 -2.491235 0.601069 -8.062868 4.562953 -0.908474 14.902735 -8.419954 -19.554839 13.881135 0.000000 0.000000 0.000000 6.365939 -0.752792 7.292092 -3.917117 1.888282 -18.345496 -3.251279 3.270057 27.457291 14.624891 -7.715892 -18.385796 0.000000 0.000000 0.000000 -2.159489 -25.988616 8.490213 -21.596610 -36.967978 1.243085 126.720034 -64.080538 -101.290382 0.000000 0.000000 0.000000 10.381885 1.787490 1.600548 18.122634 11.071051 -2.019619 -71.811926 20.401961 -9.369389 0.000000 0.000000 0.000000
-0.003647 0.937301 -0.000092 -3.713575 8.794347 -2.555828 7.488522 -0.191139 1.700653 -3.281950 0.118780 10.008161 4.731884 10.521875 2.897552 0.000000 0.000000 0.000000 -2.527969 0.614344 -8.144985 4.404631 -0.787841 13.145709 -8.102310 -18.972386 14.902751 0.000000 0.000000 0.000000 6.038937 -0.667521 6.559731 -4.095597 1.898425 -19.071574 -2.655568 3.642730 27.867689 14.138833 -7.282187 -18.594718 0.000000 0.000000 0.000000 -0.911315 -25.520517 8.210063 -22.123262 -37.359248 1.314417 124.692324 -64.137372 -98.977212 0.000000 0.000000 0.000000 9.648088 1.549202 1.439066 18.847305 10.779598 -2.093506 -71.918318 21.055122 -9.663875 0.000000 0.000000 0.000000
-0.003500 0.939704 0.000344 -3.651886 8.604113 -2.288819 7.371759 -0.175819 2.381594 -3.240381 0.157860 8.373690 4.584873 10.507668 3.714111 0.000000 0.000000 0.000000 -2.740087 0.585990 -7.912781 4.493342 -0.779012 12.328088 -7.609114 -18.119506 15.278857 0.000000 0.000000 0.000000 6.093740 -0.659445 6.405012 -4.152543 1.905283 -19.163359 -2.593039 3.772003 27.571288 13.978320 -7.120903 -18.649943 0.000000 0.000000 0.000000 -0.814329 -25.140219 8.083359 -21.940615 -37.208233 1.268918 124.947355 -64.309251 -99.517383 0.000000 0.000000 0.000000 9.595971 1.634352 1.464639 19.389966 10.665548 -2.109585 -73.090295 21.873942 -10.410708 0.000000 0.000000 0.000000
-0.003206 0.940412 0.001010 -3.654573 8.298619 -2.233196 7.503147 -0.175019 2.591684 -3.556745 0.220888 8.057964 4.625797 10.676306 4.033811 0.000000 0.000000 0.000000 -3.074503 0.564195 -7.902236 4.678999 -0.808833 12.190451 -6.886000 -16.896755 15.532848 0.000000 0.000000 0.000000 6.251116 -0.642142 6.143246 -4.256268 1.921773 -19.357523 -2.193025 4.385477 28.004101 14.221898 -7.449117 -17.949584 0.000000 0.000000 0.000000 -1.189938 -25.656353 8.267399 -21.646999 -37.002178 1.154670 125.587956 -64.475126 -100.650339 0.000000 0.000000 0.000000 9.683501 1.577092 1.497810 19.435918 11.036277 -2.104209 -74.169901 22.314989 -10.813257 0.000000 0.000000 0.000000
-0.003059 0.939435 0.001703 -3.556911 7.912414 -2.531739 7.536838 -0.158923 2.986367 -3.888597 0.278205 8.201297 4.809620 10.941304 3.834650 0.000000 0.000000 0.000000 -3.387031 0.541501 -7.886681 4.521492 -0.775549 12.891674 -5.927902 -15.268499 14.984680 0.000000 0.000000 0.000000 6.526434 -0.640964 6.045133 -4.362387 1.947139 -19.296578 -2.118887 4.604903 28.359594 13.904443 -7.500505 -16.976093 0.000000 0.000000 0.000000 -1.425243 -25.543442 8.255682 -21.676411 -37.514391 1.197041 124.323908 -65.088672 -99.762553 0.000000 0.000000 0.000000 9.683315 2.053924 1.717288 19.147076 11.821799 -2.008362 -74.213425 22.515922 -11.043370 0.000000 0.000000 0.000000
-0.003293 0.938152 0.002271 -3.587135 7.251618 -2.824583 7.589987 -0.140767 3.149407 -4.049668 0.307486 8.788179 5.166231 11.509377 3.580198 0.000000 0.000000 0.000000 -3.426621 0.552905 -8.042033 4.341444 -0.725119 13.634703 -5.198831 -14.045726 14.611353 0.000000 0.000000 0.000000 6.781135 -0.636294 5.945267 -4.365171 1.946089 -18.891681 -1.885618 4.842226 28.308804 13.438350 -7.732858 -14.942588 0.000000 0.000000 0.000000 -1.814084 -25.817470 8.398400 -21.310076 -37.125657 1.114523 123.466783 -64.941606 -98.539288 0.000000 0.000000 0.000000 9.581486 2.551217 1.909286 18.419948 12.491163 -1.883040 -74.044401 22.651321 -11.271580 0.000000 0.000000 0.000000
-0.003906 0.936414 0.002720 -3.539581 6.852291 -3.202165 7.651307 -0.128957 3.145826 -4.261454 0.338414 9.750409 5.434918 11.889465 3.178242 0.000000 0.000000 0.000000 -3.614720 0.552749 -8.251320 4.276062 -0.717203 14.678758 -4.551072 -12.913552 14.212620 0.000000 0.000000 0.000000 6.955253 -0.675678 6.304329 -4.124277 1.872490 -18.835665 -1.810400 4.904965 28.485317 12.897961 -7.660034 -13.810390 0.000000 0.000000 0.000000 -1.961458 -26.264363 8.572024 -20.769779 -36.946990 1.003415 122.005651 -64.434501 -96.229316 0.000000 0.000000 0.000000 9.572833 3.555605 2.348624 17.514920 13.490718 -1.743353 -75.162045 22.573683 -11.658802 0.000000 0.000000 0.000000
-0.004606 0.935568 0.003283 -3.430879 6.150681 -3.188838 7.799397 -0.123521 2.897537 -4.820838 0.448535 10.475781 5.739367 12.465755 3.231408 0.000000 0.000000 0.000000 -3.695852 0.578437 -8.641996 4.309195 -0.713743 15.486634 -4.221779 -12.325412 13.315268 0.000000 0.000000 0.000000 7.276281 -0.698475 6.366058 -4.079256 1.841638 -18.876547 -1.797777 5.137595 28.486013 12.410134 -7.496664 -13.040731 0.000000 0.000000 0.000000 -1.350509 -26.423067 8.571322 -20.770967 -36.503222 0.959138 120.343635 -63.326478 -93.052624 0.000000 0.000000 0.000000 9.124920 3.848435 2.397372 17.056831 14.764388 -1.578472 -77.116820 23.461774 -12.872983 0.000000 0.000000 0.000000
-0.005214 0.936170 0.004394 -3.304343 5.516556 -2.878133 7.590242 -0.107472 2.619236 -4.804278 0.460561 10.688511 5.976178 13.014439 3.718847 0.000000 0.000000 0.000000 -3.806650 0.614711 -9.210214 4.249808 -0.676171 15.875200 -3.803340 -11.648687 13.387528 0.000000 0.000000 0.000000 7.624160 -0.693039 6.101662 -3.907071 1.778953 -18.640971 -2.109476 5.330268 28.252395 11.995900 -7.428629 -12.100980 0.000000 0.000000 0.000000 -1.390013 -26.282386 8.552624 -20.254699 -35.897373 0.823291 119.810121 -62.179640 -91.115562 0.000000 0.000000 0.000000 9.049005 4.230477 2.531137 16.383390 15.936757 -1.441968 -80.081613 24.039337 -14.204886 0.000000 0.000000 0.000000
-0.005756 0.938399 0.006155 -3.171577 5.019431 -2.417797 7.520498 -0.092794 3.047825 -4.992319 0.514428 9.360105 5.987222 13.231869 4.634859 0.000000 0.000000 0.000000 -3.819085 0.627279 -9.258205 4.151248 -0.614119 15.164650 -3.578819 -11.352856 13.751228 0.000000 0.000000 0.000000 7.925428 -0.661483 5.605554 -3.869381 1.753690 -18.588933 -2.307532 5.399489 27.704138 11.381593 -7.147588 -11.265100 0.000000 0.000000 0.000000 -1.132897 -26.049221 8.472653 -20.184529 -35.276022 0.782509 118.443767 -61.262512 -88.476743 0.000000 0.000000 0.000000 8.695126 4.355987 2.506052 15.951909 16.998853 -1.301094 -82.012404 25.639888 -16.169410 0.000000 0.000000 0.000000
